<?xml version="1.0" standalone="no"?>
<!DOCTYPE svg PUBLIC "-//W3C//DTD SVG 20010904//EN"
 "http://www.w3.org/TR/2001/REC-SVG-20010904/DTD/svg10.dtd">
<svg version="1.0" xmlns="http://www.w3.org/2000/svg"
 width="200.000000pt" height="200.000000pt" viewBox="0 0 200.000000 200.000000"
 preserveAspectRatio="xMidYMid meet">

<g transform="translate(0.000000,200.000000) scale(0.100000,-0.100000)"
fill="#FFF" stroke="none">
<path d="M447 1834 c-4 -4 -7 -19 -7 -33 0 -15 -8 -31 -20 -39 -25 -16 -26
-48 -1 -62 11 -5 21 -22 23 -36 6 -55 68 -59 68 -5 0 20 7 34 20 41 25 14 26
45 1 62 -11 8 -21 27 -23 43 -2 24 -9 31 -28 33 -14 2 -29 0 -33 -4z"/>
<path d="M1769 1784 c-17 -21 0 -49 31 -49 31 0 48 28 31 49 -8 9 -21 16 -31
16 -10 0 -23 -7 -31 -16z"/>
<path d="M990 1752 c-67 -33 -133 -165 -198 -392 l-36 -127 -67 -7 c-230 -21
-362 -89 -315 -161 9 -14 27 -32 40 -40 20 -13 132 -44 223 -61 18 -3 23 -13
28 -52 10 -70 32 -133 65 -186 22 -33 30 -59 30 -90 0 -57 -26 -79 -151 -130
-200 -80 -203 -83 -207 -237 l-4 -109 601 0 601 0 0 103 c0 84 -4 108 -20 135
-20 33 -74 72 -100 72 -42 1 -42 14 -2 126 73 203 101 263 128 270 33 8 98
-17 102 -39 5 -23 -24 -67 -43 -67 -7 0 -15 10 -17 21 -4 31 -32 46 -52 30
-26 -22 -20 -78 10 -106 41 -38 79 -33 129 18 54 53 68 105 38 145 -36 49 -70
66 -136 70 -102 6 -118 -12 -208 -258 -29 -80 -56 -149 -59 -153 -10 -12 -75
17 -105 47 -34 34 -33 85 3 145 40 65 61 122 68 186 7 59 7 59 84 70 126 20
220 70 220 117 0 58 -113 108 -293 130 l-103 12 -42 175 c-48 197 -92 311
-129 341 -31 24 -39 25 -83 2z m73 -130 c27 -74 97 -342 97 -374 0 -17 -6 -19
-57 -16 -55 3 -58 2 -61 -21 -5 -35 22 -51 87 -51 44 0 53 -2 43 -12 -17 -17
-326 -18 -342 -2 -21 21 62 318 122 439 28 58 64 105 79 105 3 0 18 -31 32
-68z m-321 -489 c2 -21 13 -33 43 -48 36 -18 60 -20 220 -20 163 0 183 2 215
20 23 14 36 30 38 47 3 24 6 26 45 21 76 -8 202 -35 226 -48 23 -12 24 -13 5
-23 -104 -54 -555 -80 -834 -47 -120 14 -225 38 -243 55 -16 15 99 44 275 69
4 1 8 -11 10 -26z m518 -219 c0 -38 -22 -104 -51 -151 -20 -32 -22 -33 -39
-18 -31 28 -91 44 -166 45 -76 0 -123 -12 -166 -42 l-27 -18 -31 64 c-18 36
-35 85 -37 109 l-5 43 261 0 261 0 0 -32z m-327 -224 c-9 -33 15 -50 68 -50
54 0 83 20 74 51 -9 29 12 23 47 -12 30 -30 31 -32 25 -103 -9 -120 -82 -312
-127 -336 -26 -14 -26 -14 -55 18 -56 61 -126 296 -111 375 4 21 18 45 33 57
33 26 53 26 46 0z m-74 -402 l28 -58 -204 0 -203 0 0 63 c0 79 3 82 140 136
58 23 118 51 134 61 l30 19 23 -82 c13 -45 36 -108 52 -139z m480 155 c3 -2
-10 -51 -29 -108 l-34 -105 -78 0 c-43 0 -78 2 -78 5 0 3 11 27 24 53 13 26
34 81 46 122 12 41 23 80 25 87 3 8 24 1 62 -19 32 -17 60 -33 62 -35z m129
-49 c47 -18 62 -47 62 -114 l0 -50 -89 0 -90 0 31 90 c16 50 34 90 39 90 5 0
26 -7 47 -16z"/>
<path d="M1460 1565 c-20 -25 -8 -50 25 -50 24 0 31 5 33 24 6 37 -34 55 -58
26z"/>
<path d="M1807 1309 c-9 -6 -17 -21 -17 -35 0 -14 -10 -34 -21 -43 -24 -19
-19 -61 7 -61 9 0 14 -10 14 -29 0 -59 61 -66 68 -7 2 14 12 31 23 36 25 14
24 46 -1 62 -12 8 -20 24 -20 40 0 32 -27 51 -53 37z"/>
<path d="M111 1266 c-21 -25 -4 -58 27 -54 23 2 27 8 27 33 0 23 -5 31 -21 33
-11 2 -26 -4 -33 -12z"/>
<path d="M334 886 c-11 -28 1 -51 25 -51 28 0 47 25 38 49 -8 20 -56 21 -63 2z"/>
<path d="M183 434 c-8 -22 10 -49 32 -49 10 0 22 7 28 16 15 24 1 49 -28 49
-15 0 -28 -7 -32 -16z"/>
<path d="M1757 444 c-25 -25 8 -70 43 -59 32 10 24 59 -10 63 -14 2 -29 0 -33
-4z"/>
</g>
</svg>
